PathFileType	4	(X/Y/Z)	Kaydara																																																																																																																									
DataRate	CameraRate	NumFrames	NumMarkers	Units	OrigDataRate	OrigDataStartFrame	OrigNumFrames																																																																																																																					
30	30	7	41	mm	30	126	147																																																																																																																					
Frame#	Time	PAIB_LFHD			PAIB_RFHD			PAIB_LBHD			PAIB_RBHD			PAIB_LFTShould			PAIB_RFTShould			PAIB_LRRShould			PAIB_RRRShould			PAIB_T10			PAIB_STRN			PAIB_TRUN			PAIB_LSHO			PAIB_LUPA			PAIB_LELB			PAIB_LFRM			PAIB_LWRA			PAIB_LWRB			PAIB_LFIN			PAIB_RSHO			PAIB_RUPA			PAIB_RELB			PAIB_RFRM			PAIB_RWRA			PAIB_RWRB			PAIB_RFIN			PAIB_LFWT			PAIB_RFWT			PAIB_LBWT			PAIB_RBWT			PAIB_LTHI			PAIB_LKNE			PAIB_LSHN			PAIB_LANK			PAIB_LHEE			PAIB_LTOE			PAIB_RTHI			PAIB_RKNE			PAIB_RSHN			PAIB_RANK			PAIB_RHEE			PAIB_RTOE		
		X1	Y1	Z1	X2	Y2	Z2	X3	Y3	Z3	X4	Y4	Z4	X5	Y5	Z5	X6	Y6	Z6	X7	Y7	Z7	X8	Y8	Z8	X9	Y9	Z9	X10	Y10	Z10	X11	Y11	Z11	X12	Y12	Z12	X13	Y13	Z13	X14	Y14	Z14	X15	Y15	Z15	X16	Y16	Z16	X17	Y17	Z17	X18	Y18	Z18	X19	Y19	Z19	X20	Y20	Z20	X21	Y21	Z21	X22	Y22	Z22	X23	Y23	Z23	X24	Y24	Z24	X25	Y25	Z25	X26	Y26	Z26	X27	Y27	Z27	X28	Y28	Z28	X29	Y29	Z29	X30	Y30	Z30	X31	Y31	Z31	X32	Y32	Z32	X33	Y33	Z33	X34	Y34	Z34	X35	Y35	Z35	X36	Y36	Z36	X37	Y37	Z37	X38	Y38	Z38	X39	Y39	Z39	X40	Y40	Z40	X41	Y41	Z41
																																																																																																																												
111	4.167	241.72766	1676.93253	892.68044	58.13008	1663.88626	876.27686	264.48801	1611.89697	782.40494	61.27138	1611.86325	772.17903	230.355	1401.12396	923.55751	109.00967	1392.78366	926.86447	231.34483	1473.61206	778.95126	82.04434	1462.95929	793.40775	156.97314	1314.05975	695.67589	181.70465	1328.74908	961.58226	185.56843	1225.88036	976.49323	355.13546	1428.25485	836.88622	419.37683	1211.53587	824.3911	449.83921	1132.21985	769.94057	479.04091	1020.16075	818.55682	433.39478	909.07578	917.78191	471.24527	889.10088	848.3429	487.20608	858.517	913.66936	-20.63435	1394.0416	871.91444	-85.92957	1224.63219	822.75475	-108.14288	1109.87907	809.60876	-124.63492	974.7229	835.6517	-56.29156	862.14691	917.67113	-131.78485	854.72359	880.75943	-113.23603	814.97467	942.10037	287.32906	943.81462	913.78136	53.4018	951.50261	935.00237	208.93217	977.11624	700.40009	66.28634	987.43065	714.29955	261.26192	689.03908	762.1537	351.56452	474.07127	909.69673	308.05389	328.79498	795.56824	278.76682	271.60639	597.40791	215.6028	300.69197	571.09432	279.30584	103.57429	653.27301	18.48476	683.37387	768.54828	34.09005	454.44611	891.48689	102.45901	269.84432	896.80977	67.27359	67.58267	805.01984	127.60572	83.42846	749.37042	96.4506	46.70768	975.32326
112	4.2	248.82101	1680.81619	945.49385	64.61209	1672.86438	932.82852	267.46342	1621.49872	831.39191	63.98872	1626.74164	826.00349	233.76074	1411.89362	965.82329	113.36836	1406.03241	974.81651	229.79763	1478.28339	821.60141	82.36286	1472.36176	841.16005	149.80776	1319.20227	744.89197	186.33263	1341.23581	1007.93922	189.38047	1238.89038	1026.04233	356.71494	1434.10156	873.59367	418.96629	1218.50319	858.34732	443.01994	1138.01102	799.77592	481.98299	1025.87303	830.93315	453.20961	898.98239	917.17339	483.7141	891.58333	842.51259	508.87379	852.81754	899.7496	-18.00404	1410.09613	925.80887	-88.31343	1239.88205	890.3891	-113.10074	1124.45389	887.30858	-123.89631	991.5197	931.78642	-46.35763	893.53287	1024.25827	-123.38098	878.51784	992.82028	-100.47605	848.47275	1058.11234	287.03272	953.79845	965.54489	52.71795	953.8797	988.61809	209.67731	983.55888	754.5649	67.25717	993.52707	768.93906	271.64175	695.73578	826.54106	353.66592	493.18024	1000.78079	310.881	326.82964	912.45468	279.71874	232.78223	728.87215	216.83897	255.7074	696.84654	278.43258	83.99147	820.58212	20.18597	693.9595	799.39606	34.86369	454.89166	898.74542	101.70979	270.44699	899.2836	67.91759	69.64386	804.75227	128.41168	85.08001	750.17265	96.68849	46.66982	975.9758
113	4.233	256.43923	1676.16913	998.36426	71.89677	1674.13269	989.06059	271.26614	1620.95978	881.70624	67.64679	1632.39182	880.59578	237.23579	1412.37061	1010.55954	117.41668	1408.97583	1024.51141	228.30856	1475.4538	867.63832	82.53831	1474.40109	891.31111	142.81626	1317.88788	795.47157	190.58903	1343.33862	1055.31906	193.13868	1241.26465	1075.26649	357.73476	1432.31735	913.28773	420.4932	1219.29359	889.93721	438.573	1139.18831	826.84181	484.49966	1028.58734	842.61139	473.25264	892.81403	919.19205	493.23704	894.11507	840.75439	527.70397	851.22688	889.18587	-14.91531	1418.45078	980.84015	-91.58378	1249.52011	957.42256	-119.81393	1134.61487	963.79852	-123.50538	1006.48163	1026.44249	-37.15782	927.15446	1129.46877	-114.01478	902.92099	1102.33818	-88.96294	884.27979	1170.24773	286.70292	956.08337	1018.04939	52.61178	948.50677	1039.43703	212.05511	983.28781	807.17804	69.1551	991.66069	821.43181	282.94895	698.09242	890.95047	352.31323	505.78079	1084.80164	311.91647	319.61554	1029.09996	284.14124	185.77444	870.96222	221.53389	199.07446	833.5675	283.39787	66.75652	995.86815	21.47635	700.90828	832.92488	33.43976	454.77238	905.05684	100.74636	271.17075	904.07227	70.51261	71.44869	805.89355	131.06902	87.99001	752.32384	96.53612	46.21441	977.06497
114	4.267	263.96679	1665.53589	1051.32927	79.29345	1668.81363	1045.13336	275.27039	1612.10831	933.32047	72.2165	1629.32083	936.07674	240.99199	1403.3667	1059.1394	121.36616	1402.12555	1076.51619	227.87048	1466.5538	916.94092	83.19296	1468.67859	943.86551	138.54942	1310.4187	847.10129	194.5953	1335.46844	1105.04471	196.30667	1233.34343	1124.93942	358.26748	1423.31192	955.98732	423.06442	1214.36699	920.85106	436.19446	1135.84564	853.02269	487.09465	1027.46696	855.95749	491.55426	887.28561	925.26161	500.08091	893.74924	844.347	542.86175	850.17883	884.3576	-10.87022	1416.86157	1036.93047	-95.40677	1251.55983	1025.1255	-127.62471	1138.43536	1040.9446	-123.25765	1018.2209	1120.82809	-28.08816	959.5536	1230.28481	-103.22865	926.03699	1208.5363	-77.7547	920.41115	1277.97531	286.1677	951.07422	1070.77385	52.84083	939.00711	1090.78506	216.18534	976.51108	858.93478	73.42562	984.0979	872.53616	290.71426	695.05737	952.19826	347.76054	507.90241	1156.11145	312.86024	310.58424	1141.73172	291.53753	140.28022	1022.9113	228.93925	141.46811	982.98431	296.87143	60.47441	1174.08371	22.65754	704.33685	867.24014	32.71521	454.29554	918.96133	100.25496	270.28572	912.54417	73.02686	73.58785	806.68388	134.31864	91.60753	755.25826	95.75048	45.83235	977.37358
115	4.3	271.6098	1651.5538	1104.22241	87.02709	1659.29169	1101.37344	279.58103	1598.36761	985.97359	77.17922	1620.35889	992.2805	245.93517	1388.64838	1110.77286	125.83544	1389.10187	1130.35789	229.05066	1453.63647	968.12279	84.90274	1457.76154	998.70255	137.33681	1299.04587	899.617	199.06815	1321.46881	1156.83105	199.52326	1219.11621	1175.78514	359.19106	1410.02365	1001.75285	426.03333	1205.99686	953.5421	435.39261	1130.01305	880.93605	489.43813	1023.77251	873.44162	506.48396	881.49948	936.92322	505.05577	890.95688	854.93546	554.02203	848.30223	887.60139	-5.57131	1407.00455	1094.08737	-97.81166	1247.13341	1093.48595	-134.54615	1137.62589	1118.81516	-122.6698	1028.14011	1212.88857	-19.39783	987.74979	1322.22382	-93.80553	948.99994	1310.14923	-65.08834	955.32372	1378.29193	285.78165	939.59923	1124.45541	52.79063	926.00311	1141.65565	221.54799	966.04263	911.55197	78.40865	974.72534	922.91321	291.04061	684.17389	1008.32489	341.88095	498.42812	1214.6637	317.5267	304.13181	1246.38931	305.14603	108.50107	1179.66408	241.595	96.55588	1142.27615	317.1817	68.73851	1346.65604	27.2953	702.91382	904.79347	34.81916	449.06628	941.55716	101.69138	266.82568	924.60487	75.91765	75.68445	808.54584	138.20425	95.79005	758.94768	95.51643	45.57217	977.43065
116	4.333	279.75565	1635.97076	1156.99883	95.36844	1647.45178	1157.93503	284.49543	1582.79007	1038.98361	82.8403	1608.79318	1049.00108	251.64843	1372.7652	1164.31602	131.45045	1373.47687	1185.78056	231.66021	1439.655	1021.41693	88.05412	1444.93774	1054.7937	138.47707	1286.22116	953.78601	204.25245	1305.59586	1210.54733	203.50531	1203.13034	1228.74939	361.59889	1396.70288	1049.43069	429.1431	1197.18109	991.03378	434.82666	1123.70697	914.82391	490.96962	1019.67361	899.04488	516.84952	876.04591	955.33546	508.46474	887.86263	874.02832	561.1253	845.96634	901.3961	0.95223	1394.39499	1151.73241	-96.82066	1240.625	1160.76782	-138.14628	1135.70541	1193.96034	-120.91722	1037.19734	1298.56506	-11.11159	1010.67284	1405.25406	-85.9129	970.81573	1402.85263	-53.25376	986.80023	1467.65671	286.57757	925.8448	1180.43526	53.81126	911.93375	1193.25172	227.12103	953.65852	966.46881	83.725	964.05617	975.15701	285.40546	667.59941	1056.66626	335.30399	481.1224	1266.00479	322.52834	304.7957	1339.20761	320.34645	100.28339	1322.71042	256.9294	77.45492	1289.95697	334.51324	99.40565	1496.81595	33.21068	700.94627	944.90044	36.20834	445.98263	966.35201	102.53504	264.0033	938.97423	78.34201	80.01004	810.81139	141.50788	102.51196	763.40546	95.4521	45.54962	977.06871
117	4.367	288.81508	1621.73309	1210.19966	104.66505	1636.29074	1214.6611	290.19985	1567.86163	1092.40494	89.38055	1597.22733	1106.23566	257.45541	1359.142	1218.98148	137.2818	1359.91837	1242.19833	235.7234	1427.47925	1077.72736	93.00177	1433.66531	1112.1299	141.84284	1274.89388	1009.6756	209.98287	1291.74103	1265.83298	208.53804	1189.1951	1283.16605	365.48946	1385.61432	1101.67938	432.32849	1189.69696	1034.82597	434.69742	1118.07884	956.23009	491.66542	1016.01624	933.54912	524.23801	871.73973	982.97714	509.83471	885.06203	903.14896	565.14473	843.8076	925.69817	8.41359	1384.03687	1209.80606	-92.74044	1234.68979	1223.62244	-137.81365	1133.61137	1261.47797	-117.23088	1044.64539	1373.92487	-4.00204	1028.43315	1478.82721	-79.05633	988.69919	1483.00308	-44.2481	1011.58424	1544.41879	289.1494	911.81961	1238.06206	56.01463	898.26988	1247.55531	233.02595	941.30226	1023.64365	89.35654	953.9431	1030.38818	283.95363	652.98981	1107.58293	335.95211	464.58126	1318.1163	319.81812	308.31173	1415.96451	320.2742	103.02462	1430.29404	256.42889	75.00855	1400.73776	334.4912	128.93697	1604.75189	39.01052	698.53203	990.5175	37.7971	442.85614	995.31097	102.8765	261.76052	956.96983	78.27528	87.61215	814.66713	141.71311	113.46509	769.59	95.23676	45.54656	977.05505
